<svg width="24" height="25" viewBox="0 0 24 25" fill="none" xmlns="http://www.w3.org/2000/svg">
  <g clipPath="url(#clip0_1476_19658)">
    <path
      fillRule="evenodd"
      clipRule="evenodd"
      d="M14.4498 1.50923L22.9912 10.0507C24.3385 11.3979 24.3385 13.5821 22.9912 14.9294L14.4323 23.4912C13.085 24.8385 10.9008 24.8385 9.55358 23.4912L1.00923 14.9498C-0.338037 13.6025 -0.338037 11.4183 1.00923 10.0711L9.57108 1.50923C10.9183 0.161963 13.1025 0.161963 14.4498 1.50923ZM11.4316 3.67594L11.3966 3.70801L3.21093 11.8937C2.88432 12.2203 2.87557 12.7394 3.17885 13.0806L3.21093 13.1155L11.3849 21.2895C11.7115 21.6162 12.2306 21.6249 12.5689 21.3216L12.6039 21.2895L20.7895 13.1039C21.1249 12.7685 21.1249 12.2232 20.7895 11.8849L12.6155 3.71093C12.2889 3.38432 11.7699 3.37557 11.4316 3.67885V3.67594ZM12.1577 7.27739L17.2202 12.3428C17.3047 12.4273 17.3047 12.5615 17.2202 12.649L12.149 17.7202C12.0644 17.8047 11.9273 17.8047 11.8428 17.7202L6.78031 12.6548C6.69574 12.5702 6.69574 12.4361 6.78031 12.3486L11.8515 7.27739C11.9361 7.19282 12.0731 7.19282 12.1577 7.27739Z"
      fill="white"
    />
  </g>
  <defs>
    <clipPath id="clip0_1476_19658">
      <rect width="24" height="24" fill="white" transform="translate(0 0.5)" />
    </clipPath>
  </defs>
</svg>
