<svg width="24" height="25" viewBox="0 0 24 25" fill="none" xmlns="http://www.w3.org/2000/svg">
  <path d="M12.0049 23.7034C16.4206 23.7034 20.0001 20.1449 20.0001 15.7552C20.0001 14.0706 19.473 12.5085 18.5738 11.2229L11.9514 15.1861L5.32908 11.3799C4.4952 12.6348 4.00977 14.1386 4.00977 15.7552C4.00977 20.1449 7.58936 23.7034 12.0049 23.7034Z" fill="#00A3FF"/>
  <path d="M6.37451 9.95191L12.0049 13.1704V1.34131L6.37451 9.95191Z" fill="#FF7272"/>
  <path d="M17.6259 9.95191L12.0049 13.1704V1.34131L17.6259 9.95191Z" fill="#FFBFAB"/>
  <path d="M18.5737 11.2214L12.0049 15.1769V23.6662L18.5737 11.2214Z" fill="#4DEAFF"/>
  <path d="M5.32349 11.3708L12.0049 15.1771V23.6664L5.32349 11.3708Z" fill="#64E3FF"/>
</svg>
