<svg version="1.1" id="Layer_1" xmlns="http://www.w3.org/2000/svg" xmlns:xlink="http://www.w3.org/1999/xlink" x="0px" y="0px"
	 width="100%" viewBox="0 0 183 276" enable-background="new 0 0 183 276" xml:space="preserve">
<path fill="#000000" opacity="1.000000" stroke="none" 
	d="
M91.000000,1.000000 
	C121.940147,1.000000 152.880295,1.000000 184.000000,1.000000 
	C184.000000,45.354065 184.000000,89.708374 183.737274,134.537918 
	C183.306320,135.062103 183.138077,135.111038 182.639221,134.999222 
	C169.625473,128.907028 156.978439,122.896805 144.250488,117.063126 
	C126.557877,108.953964 108.804604,100.977150 91.041458,92.479774 
	C91.003746,61.677246 91.001869,31.338623 91.000000,1.000000 
M118.502563,36.953407 
	C113.002525,28.403162 107.502487,19.852917 102.002449,11.302671 
	C100.999428,32.805973 101.589203,53.793518 100.717819,74.720215 
	C100.354057,83.455940 103.625000,87.600769 110.826233,91.064949 
	C130.578598,100.566856 150.102829,110.542831 169.725082,120.315659 
	C170.943802,120.922653 172.229172,121.395828 173.483521,121.931252 
	C173.729095,121.649185 173.974655,121.367111 174.220230,121.085045 
	C155.812561,93.221794 137.404892,65.358551 118.502563,36.953407 
z"/>
<path fill="#000000" opacity="1.000000" stroke="none" 
	d="
M92.000000,277.000000 
	C61.723965,277.000000 31.447931,277.000000 1.000000,277.000000 
	C1.000000,230.312576 1.000000,183.624954 1.244793,136.467987 
	C1.489585,135.998672 1.964699,136.116837 2.112309,136.439301 
	C12.588003,142.401245 22.890322,148.088562 33.249771,153.669846 
	C52.132740,163.843277 71.049583,173.953842 90.020096,184.339417 
	C90.377213,184.753601 90.666527,184.918991 90.975189,185.547394 
	C91.329704,216.340271 91.664856,246.670135 92.000000,277.000000 
M20.635633,161.902176 
	C16.259779,159.717041 11.883924,157.531906 6.230556,154.708832 
	C32.060513,193.639008 56.981285,231.198883 81.902054,268.758759 
	C83.000206,244.478973 82.888283,220.835953 83.113808,197.196152 
	C83.150085,193.393631 81.775459,191.695312 78.607681,190.162018 
	C59.479259,180.903381 40.434486,171.471893 20.635633,161.902176 
z"/>
<path fill="#000000" opacity="1.000000" stroke="none" 
	d="
M184.000000,138.000000 
	C184.000000,184.244659 184.000000,230.489319 184.000000,277.000000 
	C154.312973,277.000000 124.625145,277.000000 94.154510,276.722076 
	C93.627548,275.837402 93.798637,275.175659 94.151405,274.631744 
	C112.204468,246.798721 130.310379,218.999893 148.325089,191.142090 
	C158.337860,175.658417 168.149872,160.044830 178.185333,144.576050 
	C179.760315,142.148376 182.044006,140.180481 184.000000,138.000000 
z"/>
<path fill="#000000" opacity="1.000000" stroke="none" 
	d="
M1.000000,135.000000 
	C1.000000,90.421516 1.000000,45.843029 1.000000,1.000000 
	C30.020359,1.000000 59.041519,1.000000 88.834000,1.284844 
	C85.973312,7.285551 82.426598,13.057748 78.694862,18.707745 
	C60.388729,46.423935 42.022537,74.100449 23.700790,101.806343 
	C16.412868,112.827042 9.184851,123.887360 1.699200,134.970032 
	C1.468838,135.010437 1.000000,135.000000 1.000000,135.000000 
z"/>
<path fill="#8B8BF6" opacity="1.000000" stroke="none" 
	d="
M184.000000,137.625000 
	C182.044006,140.180481 179.760315,142.148376 178.185333,144.576050 
	C168.149872,160.044830 158.337860,175.658417 148.325089,191.142090 
	C130.310379,218.999893 112.204468,246.798721 94.151405,274.631744 
	C93.798637,275.175659 93.627548,275.837402 93.685852,276.722076 
	C93.555557,277.000000 93.111107,277.000000 92.333328,277.000000 
	C91.664856,246.670135 91.329704,216.340271 91.038681,185.198395 
	C92.077469,183.580978 92.969727,182.579010 94.082069,181.999481 
	C112.621468,172.340317 131.224045,162.801910 149.735931,153.090576 
	C160.881927,147.243378 171.896317,141.145294 182.969849,135.159958 
	C183.138077,135.111038 183.306320,135.062103 183.737274,135.006577 
	C184.000000,135.750000 184.000000,136.500000 184.000000,137.625000 
z"/>
<path fill="#E5E5FF" opacity="1.000000" stroke="none" 
	d="
M1.929563,134.929642 
	C9.184851,123.887360 16.412868,112.827042 23.700790,101.806343 
	C42.022537,74.100449 60.388729,46.423935 78.694862,18.707745 
	C82.426598,13.057748 85.973312,7.285551 89.302658,1.284844 
	C89.444443,1.000000 89.888893,1.000000 90.666672,1.000000 
	C91.001869,31.338623 91.003746,61.677246 90.803314,92.588867 
	C90.383987,93.431023 90.166969,93.700188 89.590355,94.024063 
	C68.026367,104.285393 46.855286,114.562119 25.600063,124.661743 
	C17.853483,128.342606 9.906582,131.601883 2.020951,135.022278 
	C1.990830,134.991058 1.929564,134.929642 1.929563,134.929642 
z"/>
<path fill="#E5E5FF" opacity="1.000000" stroke="none" 
	d="
M1.000000,135.250000 
	C1.000000,135.000000 1.468838,135.010437 1.699201,134.970032 
	C1.929564,134.929642 1.990830,134.991058 1.997162,135.287933 
	C1.990562,135.762161 1.977630,135.939499 1.964699,136.116837 
	C1.964699,136.116837 1.489585,135.998672 1.244793,135.999329 
	C1.000000,136.000000 1.000000,135.500000 1.000000,135.250000 
z"/>
<path fill="#B2B2FF" opacity="1.000000" stroke="none" 
	d="
M89.949951,93.969360 
	C90.166969,93.700188 90.383987,93.431023 90.839149,93.052765 
	C108.804604,100.977150 126.557877,108.953964 144.250488,117.063126 
	C156.978439,122.896805 169.625473,128.907028 182.639221,134.999222 
	C171.896317,141.145294 160.881927,147.243378 149.735931,153.090576 
	C131.224045,162.801910 112.621468,172.340317 94.082069,181.999481 
	C92.969727,182.579010 92.077469,183.580978 91.019318,184.735382 
	C90.666527,184.918991 90.377213,184.753601 90.034729,183.865814 
	C89.971016,153.418747 89.960480,123.694054 89.949951,93.969360 
z"/>
<path fill="#6F6E6E" opacity="1.000000" stroke="none" 
	d="
M118.749893,37.224358 
	C137.404892,65.358551 155.812561,93.221794 174.220230,121.085045 
	C173.974655,121.367111 173.729095,121.649185 173.483521,121.931252 
	C172.229172,121.395828 170.943802,120.922653 169.725082,120.315659 
	C150.102829,110.542831 130.578598,100.566856 110.826233,91.064949 
	C103.625000,87.600769 100.354057,83.455940 100.717819,74.720215 
	C101.589203,53.793518 100.999428,32.805973 102.002449,11.302671 
	C107.502487,19.852917 113.002525,28.403162 118.749893,37.224358 
z"/>
<path fill="#DBC1FE" opacity="1.000000" stroke="none" 
	d="
M89.590347,94.024055 
	C89.960480,123.694054 89.971016,153.418747 89.966919,183.617035 
	C71.049583,173.953842 52.132740,163.843277 33.249771,153.669846 
	C22.890322,148.088562 12.588003,142.401245 2.112309,136.439301 
	C1.977630,135.939499 1.990562,135.762161 2.027282,135.319153 
	C9.906582,131.601883 17.853483,128.342606 25.600063,124.661743 
	C46.855286,114.562119 68.026367,104.285393 89.590347,94.024055 
z"/>
<path fill="#6F6E6E" opacity="1.000000" stroke="none" 
	d="
M20.998682,162.000198 
	C40.434486,171.471893 59.479259,180.903381 78.607681,190.162018 
	C81.775459,191.695312 83.150085,193.393631 83.113808,197.196152 
	C82.888283,220.835953 83.000206,244.478973 81.902054,268.758759 
	C56.981285,231.198883 32.060513,193.639008 6.230556,154.708832 
	C11.883924,157.531906 16.259779,159.717041 20.998682,162.000198 
z"/>
</svg>
