<svg width="100" height="100" viewBox="0 0 100 100" fill="none" xmlns="http://www.w3.org/2000/svg">
<path d="M80 49.5417C79.348 50.3935 78.5868 51.0495 78.0618 51.8587C74.7166 57.0149 71.4459 62.2195 68.1083 67.3807C62.1034 76.6666 56.0681 85.9329 50.0505 95.2106C49.9329 95.3919 49.8758 95.6125 49.8953 95.9074C49.8518 96 49.7037 96 49.4444 96C49.2216 85.89 49.1099 75.7801 49.0129 65.3995C49.3591 64.8603 49.6566 64.5263 50.0273 64.3332C56.2071 61.1134 62.408 57.934 68.5786 54.6969C72.294 52.7478 75.9654 50.7151 79.6566 48.72C79.7127 48.7037 79.7688 48.6874 79.9124 48.6689C80 48.9167 80 49.1667 80 49.5417Z" fill="#8B8BF6"/>
<path d="M19.3099 48.6432C21.7283 44.9624 24.1376 41.2757 26.567 37.6021C32.6742 28.3668 38.7963 19.1413 44.8983 9.90258C46.1422 8.01925 47.3245 6.09518 48.4342 4.09495C48.4815 4 48.6297 4 48.8889 4C49.0006 14.1129 49.0013 24.2257 48.9345 34.5296C48.7947 34.8103 48.7223 34.9001 48.5301 35.008C41.3421 38.4285 34.2851 41.854 27.2 45.2206C24.6178 46.4475 21.9689 47.534 19.3403 48.6741C19.3303 48.6637 19.3099 48.6432 19.3099 48.6432Z" fill="#E5E5FF"/>
<path d="M19 48.75C19 48.6667 19.1563 48.6701 19.2331 48.6567C19.3099 48.6432 19.3303 48.6637 19.3324 48.7626C19.3302 48.9207 19.3259 48.9798 19.3216 49.0389C19.3216 49.0389 19.1632 48.9995 19.0816 48.9998C19 49 19 48.8333 19 48.75Z" fill="#E5E5FF"/>
<path d="M48.65 34.9898C48.7223 34.9001 48.7946 34.8103 48.9464 34.6842C54.9348 37.3257 60.8526 39.9846 66.7501 42.6877C70.9928 44.6323 75.2085 46.6357 79.5464 48.6664C75.9654 50.7151 72.294 52.7478 68.5786 54.6969C62.408 57.934 56.2071 61.1134 50.0273 64.3332C49.6566 64.5263 49.3591 64.8603 49.0064 65.2451C48.8888 65.3063 48.7924 65.2512 48.6782 64.9553C48.657 54.8062 48.6535 44.898 48.65 34.9898Z" fill="#B2B2FF"/>
<path d="M58.2499 16.0748C64.4683 25.4528 70.6042 34.7406 76.7401 44.0283C76.6582 44.1224 76.5763 44.2164 76.4945 44.3104C76.0764 44.1319 75.6479 43.9742 75.2417 43.7719C68.7009 40.5143 62.1928 37.1889 55.6087 34.0216C53.2083 32.8669 52.118 31.4853 52.2393 28.5734C52.5297 21.5978 52.3331 14.602 52.6675 7.43422C54.5008 10.2843 56.3342 13.1344 58.2499 16.0748Z" fill="#6F6E6E"/>
<path d="M48.5301 35.008C48.6535 44.898 48.657 54.8062 48.6556 64.8723C42.3499 61.6513 36.0442 58.2811 29.7499 54.8899C26.2968 53.0295 22.8627 51.1337 19.3708 49.1464C19.3259 48.9798 19.3302 48.9207 19.3424 48.773C21.9689 47.534 24.6178 46.4475 27.2 45.2206C34.2851 41.854 41.3421 38.4285 48.5301 35.008Z" fill="#DBC1FE"/>
<path d="M25.6662 57.6667C32.1448 60.824 38.4931 63.9678 44.8692 67.054C45.9252 67.5651 46.3834 68.1312 46.3713 69.3987C46.2961 77.2786 46.3334 85.1596 45.9674 93.2529C37.6604 80.733 29.3535 68.213 20.7435 55.2363C22.628 56.1773 24.0866 56.9057 25.6662 57.6667Z" fill="#6F6E6E"/>
</svg>
