<svg width="50" height="50" viewBox="0 0 50 50" fill="none" xmlns="http://www.w3.org/2000/svg">
<g clip-path="url(#clip0_2_100)">
<mask id="mask0_2_100" style="mask-type:luminance" maskUnits="userSpaceOnUse" x="4" y="4" width="159" height="42">
<path d="M162.16 4.6H4.72V45.4H162.16V4.6Z" fill="white"/>
</mask>
<g mask="url(#mask0_2_100)">
<path fill-rule="evenodd" clip-rule="evenodd" d="M72.64 20.92H79.6C80.2 20.92 80.68 20.44 80.68 19.72C80.56 19.24 80.2 18.76 79.6 18.76H70.96C70.36 18.76 69.88 19.24 69.88 19.84V30.16C69.88 30.76 70.36 31.24 70.96 31.24H79.6C80.2 31.24 80.68 30.76 80.68 30.04C80.56 29.56 80.2 29.08 79.6 29.08H72.76C72.4 29.08 72.04 28.72 72.04 28.36V26.56C72.04 26.2 72.4 25.84 72.76 25.84H77.8C78.4 25.84 78.88 25.36 78.88 24.64C78.76 24.16 78.4 23.68 77.8 23.68H72.64C72.28 23.68 71.92 23.32 71.92 22.96V21.16C71.92 21.16 72.16 20.92 72.64 20.92ZM60.64 20.92C61.84 20.92 62.8 21.28 63.52 22.12C63.76 22.36 64 22.36 64.24 22.36C64.84 22.36 65.32 21.88 65.32 21.28C65.32 21.04 65.2 20.68 64.84 20.44C63.64 19.24 62.2 18.76 60.52 18.76C58.84 18.76 57.4 19.36 56.08 20.56C54.88 21.76 54.28 23.2 54.28 25C54.28 26.68 54.88 28.12 56.08 29.44C57.28 30.64 58.72 31.24 60.52 31.24C62.2 31.24 63.64 30.64 64.96 29.44C65.32 29.08 65.32 28.36 64.96 28C64.6 27.64 63.88 27.64 63.52 28C62.68 28.84 61.72 29.2 60.64 29.2C59.56 29.2 58.48 28.84 57.76 28C56.92 27.16 56.56 26.2 56.56 25.12C56.56 24.04 56.92 22.96 57.76 22.24C58.6 21.28 59.56 20.92 60.64 20.92ZM94.48 29.2H87.64C87.28 29.2 86.92 28.84 86.92 28.48V19.84C86.92 19.36 86.56 18.88 85.96 18.76C85.36 18.64 84.76 19.12 84.76 19.84V30.16C84.76 30.76 85.24 31.24 85.84 31.24H94.48C95.08 31.24 95.56 30.76 95.56 30.04C95.44 29.56 94.96 29.2 94.48 29.2ZM138.04 18.76H127.72C127.12 18.76 126.64 19.24 126.64 19.96C126.76 20.44 127.12 20.92 127.72 20.92H131.2C131.56 20.92 131.92 21.28 131.92 21.64V30.28C131.92 30.88 132.4 31.36 133.12 31.36C133.6 31.24 134.08 30.88 134.08 30.28V21.64C134.08 21.28 134.44 20.92 134.8 20.92H138.28C138.88 20.92 139.36 20.44 139.36 19.72C139 19.24 138.52 18.76 138.04 18.76ZM143.56 18.76C142.96 18.76 142.48 19.24 142.48 19.84V30.16C142.48 30.76 142.96 31.24 143.56 31.24C144.16 31.24 144.64 30.76 144.64 30.16V19.84C144.52 19.24 144.04 18.76 143.56 18.76ZM122.8 24.88C121.84 24.28 120.52 23.92 118.96 23.92C116.8 23.92 115.72 23.44 115.72 22.36C115.72 21.28 116.8 20.8 118.96 20.8C120.16 20.8 121.24 21.04 122.32 21.4C122.92 21.64 123.4 21.4 123.64 20.8C123.88 20.32 123.52 19.72 123.04 19.48C121.84 19 120.52 18.76 118.96 18.76C117.4 18.76 116.08 19.12 115.12 19.72C114.16 20.32 113.68 21.28 113.68 22.36C113.68 23.56 114.16 24.52 115.12 25.12C116.08 25.72 117.4 26.08 118.96 26.08C121.12 26.08 122.2 26.56 122.2 27.64C122.2 28.72 121.12 29.2 118.96 29.2H118.48C117.4 29.2 116.32 28.96 115.12 28.6C114.64 28.36 114.04 28.6 113.8 29.2C113.56 29.68 113.92 30.4 114.4 30.52C115.6 31 116.92 31.24 118.48 31.24H118.96C120.52 31.24 121.84 30.88 122.8 30.28C123.76 29.68 124.24 28.72 124.24 27.64C124.24 26.44 123.76 25.48 122.8 24.88ZM101.56 20.92H108.52C109.12 20.92 109.6 20.44 109.6 19.72C109.48 19.24 109.12 18.76 108.52 18.76H99.88C99.28 18.76 98.8 19.24 98.8 19.84V30.16C98.8 30.76 99.28 31.24 99.88 31.24H108.52C109.12 31.24 109.6 30.76 109.6 30.04C109.48 29.56 109.12 29.08 108.52 29.08H101.68C101.32 29.08 100.96 28.72 100.96 28.36V26.56C100.96 26.2 101.32 25.84 101.68 25.84H106.84C107.44 25.84 107.92 25.36 107.92 24.64C107.8 24.16 107.44 23.68 106.84 23.68H101.68C101.32 23.68 100.96 23.32 100.96 22.96V21.16C100.96 21.16 101.2 20.92 101.56 20.92ZM43.12 25.24C43.12 25.36 43 25.36 42.88 25.24C42.88 25.24 42.88 25.12 42.76 25.12C42.76 25 42.76 24.88 42.76 24.88C42.76 24.88 42.76 24.88 42.88 24.76C43 24.64 43.12 24.64 43.12 24.76C43.12 24.88 43.12 25.12 43.12 25.24ZM42.28 22.84C42.16 23.08 41.8 23.08 41.68 22.84C41.68 22.84 41.68 22.72 41.56 22.72C40.96 21.88 40.36 21.04 39.64 20.2C39.52 19.96 39.64 19.72 39.88 19.72C41.56 19.72 42.4 20.08 42.64 20.68C42.88 21.04 42.88 21.76 42.28 22.84ZM41.92 31.48C41.8 31.72 41.68 31.96 41.68 32.2V32.32C41.08 33.52 40 34.36 38.68 35.08C38.32 35.2 38.08 34.96 38.08 34.6C38.56 33.04 38.92 31.24 39.04 29.44C39.04 29.08 39.28 28.84 39.52 28.6C40.12 28.12 40.6 27.64 41.08 27.16C41.32 26.92 41.68 27.04 41.8 27.4C42.28 28.72 42.4 30.16 41.92 31.48ZM38.2 37.24C38.08 37.36 37.96 37.48 37.72 37.72C37.48 37.96 37.24 38.2 37 38.44C36.88 38.56 36.64 38.44 36.64 38.2C36.64 38.2 36.64 38.08 36.76 38.08C36.88 37.84 37 37.6 37.12 37.36L37.24 37.24C37.48 37.12 37.72 37.12 37.96 37C38.2 36.88 38.32 37.12 38.2 37.24ZM35.44 35.8C34.84 35.92 34.36 35.92 33.76 35.92C32.32 35.92 30.76 35.8 29.08 35.56C28.84 35.56 28.84 35.2 29.08 35.2C29.44 35.08 29.8 34.84 30.16 34.6C32.56 33.28 34.96 31.84 36.88 30.4C37 30.28 37.24 30.4 37.24 30.64C37 32.32 36.52 33.88 36.04 35.32C35.92 35.56 35.8 35.8 35.44 35.8ZM34.96 38.08C33.64 40.72 32.08 42.16 30.4 42.04C28.72 42.04 27.04 40.24 25.72 37.12C25.6 36.88 25.72 36.76 25.96 36.64C26.08 36.64 26.08 36.64 26.2 36.64C28.6 37.36 30.88 37.6 33.04 37.6C33.28 37.6 33.52 37.6 33.76 37.6C34 37.6 34.36 37.6 34.6 37.6C34.84 37.6 35.08 37.84 34.96 38.08ZM27.16 43C26.32 43.12 25.6 43.12 24.76 43.12C21.16 43.12 17.8 42.16 14.8 40.24C14.56 40.12 14.68 39.76 14.92 39.76H15.04C15.76 39.76 16.6 39.64 17.44 39.4C19.36 39.04 21.4 38.44 23.68 37.6C23.92 37.48 24.04 37.6 24.16 37.84C25 39.88 26.08 41.44 27.28 42.52C27.52 42.64 27.4 42.88 27.16 43ZM16.48 30.04C18.16 28.72 19.96 27.4 22.12 26.2C22.12 28.84 22.48 31.48 22.96 33.76C22.24 33.4 21.4 33.04 20.68 32.68C19.12 31.84 17.8 31 16.48 30.04ZM11.44 37.24C11.08 36.52 11.56 34.84 14.08 32.2C14.32 31.96 14.32 31.48 14.08 31.24C13.96 31.12 13.84 31.12 13.72 31C13.48 30.76 13.12 30.76 12.88 31L12.76 31.12C11.44 32.44 10.6 33.64 10.12 34.72C10 35.08 9.52 35.08 9.4 34.72C7.48 31.72 6.4 28.24 6.4 24.64C6.4 23.32 6.52 22 6.76 20.8C6.76 20.56 7.12 20.56 7.12 20.8C7.48 22.12 8.08 23.32 9.04 24.64C10.24 26.44 11.68 28.12 13.48 29.68C14.08 30.16 14.8 30.76 15.4 31.24C16.72 32.2 18.28 33.16 19.84 34C20.56 34.36 21.28 34.72 21.88 35.08C22.24 35.2 22.72 35.32 23.08 35.08C23.44 34.96 23.8 34.84 24.04 34.72C24.4 34.6 24.64 34.12 24.52 33.76V33.64C23.92 31.36 23.68 28.72 23.68 25.96V25.84C23.68 25.72 23.68 25.48 23.68 25.36V25.24C23.68 25.12 23.68 24.88 23.68 24.76C23.68 24.28 23.68 23.8 23.68 23.32C23.8 19.96 24.4 16.84 25.36 14.2C25.48 13.96 25.36 13.72 25.12 13.6C24.88 13.48 24.64 13.48 24.4 13.36C24.16 13.24 23.92 13.36 23.8 13.6C22.84 16.48 22.24 19.84 22.12 23.44C22.12 23.92 21.88 24.28 21.52 24.52C19.36 25.72 17.44 27.16 15.76 28.48C15.4 28.72 14.92 28.72 14.56 28.48C12.88 27.04 11.44 25.48 10.36 23.8C8.2 20.56 7.72 17.56 8.92 15.16C9.16 14.92 9.28 14.68 9.4 14.44C10.72 12.64 13.36 11.56 16.72 11.44C16.96 11.44 17.2 11.44 17.32 11.44C19.36 11.44 21.64 11.8 23.92 12.4H24.04H24.16C24.64 12.52 25.24 12.76 25.72 12.88C25.84 12.88 25.96 13 26.08 13H26.2H26.32C27.4 13.48 28.6 13.96 29.68 14.56C31.84 15.64 33.76 16.96 35.44 18.4C32.2 19.12 28.48 20.56 24.64 22.48C24.52 22.6 24.4 22.72 24.4 22.96C24.4 23.2 24.4 23.68 24.4 24.04C24.4 24.28 24.64 24.4 24.88 24.28C28.6 22.36 32.32 20.8 35.56 20.08C36.16 19.96 36.52 19.36 36.52 18.76C36.52 18.28 36.4 17.92 36.28 17.56C36.16 17.08 35.92 16.6 35.44 16.24C34 15.04 32.32 14.08 30.52 13.12C29.32 12.52 28.12 11.92 26.92 11.44C26.68 11.32 26.56 11.08 26.68 10.84C27.88 8.56 29.44 7.36 30.88 7.36C32.56 7.36 34.24 9.16 35.56 12.28C36.16 13.84 36.64 15.64 37 17.56C37.12 18.4 37.24 19.24 37.36 20.08C37.48 21.52 37.6 23.08 37.48 24.64C37.48 25.6 37.36 26.56 37.36 27.52C35.08 29.32 32.2 31.24 29.2 32.8C28.24 33.4 27.16 33.88 26.2 34.36C26.08 34.36 26.08 34.48 25.96 34.48C25.12 34.84 24.28 35.2 23.44 35.56H23.32C23.32 35.56 23.2 35.56 23.2 35.68C23.08 35.68 22.96 35.8 22.84 35.8H22.72C22.6 35.92 22.36 35.92 22.24 35.92C22.24 35.92 22.24 35.92 22.12 35.92C20.32 36.52 18.76 37 17.2 37.36C13.6 38.44 11.8 37.96 11.44 37.24ZM14.08 9.64C17.2 7.48 20.92 6.28 24.76 6.28C25.84 6.28 26.8 6.4 27.76 6.52C28 6.52 28.12 6.88 27.88 7.12C26.92 7.84 26.08 9.04 25.24 10.48C25 10.84 24.64 10.96 24.28 10.84C21.64 10.12 19.12 9.76 16.72 9.88C15.88 9.88 15.04 9.88 14.2 10C13.96 10.12 13.84 9.76 14.08 9.64ZM39.4 23.08C39.4 22.84 39.64 22.72 39.76 22.96C39.88 23.2 40 23.44 40.24 23.56C40.48 23.8 40.6 24.16 40.72 24.4C40.84 24.52 40.84 24.76 40.72 25C40.48 25.24 40.24 25.48 40 25.72C39.88 25.84 39.76 25.96 39.76 25.96C39.64 26.08 39.4 25.96 39.4 25.84C39.4 25.48 39.4 25.24 39.4 24.88C39.4 24.28 39.4 23.68 39.4 23.08ZM37.48 11.32C37.6 11.44 37.72 11.56 37.84 11.68C39.64 13.48 40.96 15.52 41.92 17.8C42.04 18.04 41.8 18.28 41.56 18.28C41.08 18.16 40.48 18.16 39.76 18.16C39.28 18.16 38.92 17.8 38.8 17.44C38.44 15.4 37.96 13.6 37.24 11.92C37.24 11.8 37.12 11.68 37.12 11.68C37 11.32 37.24 11.2 37.48 11.32ZM44.44 20.56C43.6 16.84 41.8 13.36 39.04 10.48C35.2 6.64 30.16 4.6 24.76 4.6C19.36 4.6 14.32 6.64 10.6 10.48C9.64 11.44 8.8 12.4 8.2 13.48C7.84 13.72 7.72 14.08 7.48 14.32C5.68 17.44 4.6 20.92 4.6 24.64C4.6 30.04 6.64 35.08 10.48 38.8C14.32 42.64 19.36 44.68 24.64 44.68C30.04 44.68 35.08 42.64 38.8 38.8C40.6 37 42.04 34.96 43 32.68C43.12 32.44 43.24 32.2 43.36 31.96C44.32 29.68 44.68 27.16 44.68 24.64C44.8 23.32 44.68 21.88 44.44 20.56ZM156.88 26.56H153.04C152.68 26.56 152.44 26.2 152.68 25.84L154.6 22.6C154.72 22.24 155.2 22.24 155.44 22.6L157.36 25.84C157.48 26.2 157.24 26.56 156.88 26.56ZM161.92 29.68L155.92 19.24C155.44 18.52 154.6 18.52 154.12 19.24L148.12 29.68C148 29.8 148 29.92 148 30.04C148 30.64 148.36 31.12 148.96 31.12C149.32 31.12 149.68 30.88 149.92 30.52L150.88 28.96C151 28.72 151.24 28.6 151.48 28.6H158.44C158.68 28.6 158.92 28.72 159.04 28.96L160 30.52C160.24 30.88 160.6 31.12 160.96 31.12C161.56 31.12 162.04 30.64 162.04 30.04C162.04 30.04 161.92 29.92 161.92 29.68Z" fill="#EDEDED"/>
</g>
</g>
<defs>
<clipPath id="clip0_2_100">
<rect width="40.8" height="40.8" fill="white" transform="translate(4.6 4.6)"/>
</clipPath>
</defs>
</svg>
