<svg width="95" height="69" viewBox="0 0 95 69" fill="none" xmlns="http://www.w3.org/2000/svg">
<path d="M0.145025 33.5449L0 32.4187C1.94412 31.6993 2.28513 30.7075 2.43015 28.7239C2.57518 27.2379 2.57518 25.2543 2.57518 23.6776V11.6994C2.57518 10.1227 2.57518 8.13901 2.43015 6.65309C2.28513 4.66944 1.94412 3.68125 0 2.95828L0.145025 1.83203C2.04211 1.96645 3.35126 1.96645 4.56634 1.96645H13.507C15.4981 1.96645 17.0072 1.96645 18.9003 1.83203C19.2413 4.12812 19.4334 5.79569 19.5823 8.27343L18.1713 8.49868C17.5402 6.83111 17.0032 5.88652 16.2742 5.16354C15.5451 4.44056 14.4281 4.08089 13.503 3.94647C12.288 3.76481 11.2179 3.72122 9.32474 3.72122C7.03961 3.72122 6.74956 4.08089 6.60453 5.88288C6.45951 7.27797 6.45951 8.90195 6.45951 10.5223V16.2879C8.11358 16.2879 11.5158 16.1971 13.068 16.0627C15.2551 15.8374 15.9371 15.1181 16.6662 13.0436L17.8342 13.2689C17.6892 15.0273 17.6892 16.0155 17.6892 17.1417C17.6892 18.2679 17.6892 19.3034 17.8342 21.0618L16.6662 21.287C15.9371 19.2162 15.2551 18.5404 13.068 18.2679C11.5119 18.0863 8.06262 18.0427 6.45951 18.0427V24.1244C6.45951 25.7012 6.5575 28.1353 6.60453 29.0363C6.70252 31.2452 7.52956 31.6485 9.7167 31.6485C11.9038 31.6485 13.5579 31.6049 14.8671 31.4232C16.5682 31.198 17.3442 30.5658 18.0733 29.6212C18.6573 28.7638 19.1433 27.8192 19.7744 26.1517L21.0875 26.3769C20.8445 29.0799 20.4564 31.2888 19.9194 33.6285C16.3722 33.4468 11.9509 33.4032 5.72654 33.4032C3.34342 33.4032 2.03427 33.4032 0.137186 33.5377L0.145025 33.5449Z" fill="white"/>
<path d="M26.8198 19.446C27.5018 17.7348 27.6468 16.8774 27.6468 16.4269C27.6468 16.1581 27.5018 16.02 27.2587 16.02C26.7727 16.02 25.8007 16.7393 23.5665 19.1735L22.6415 18.4069C25.4126 14.6685 27.4038 12.9573 29.0069 12.9573C30.026 12.9573 30.951 13.8147 30.951 15.1662C30.951 16.6086 30.1749 18.5886 29.4459 20.4378L26.2867 28.7248C25.7536 30.0763 25.6556 30.4359 25.6556 30.6176C25.6556 30.8428 25.8516 31.0681 26.1417 31.0681C26.6747 31.0681 27.6468 30.574 30.0299 27.4205L31.002 28.0527C28.4268 32.6921 26.1887 33.9527 24.4876 33.9527C23.3705 33.9527 22.3984 33.0517 22.3984 31.8819C22.3984 30.8465 22.7394 29.8547 23.9036 26.9264L26.8198 19.4496V19.446ZM30.563 0.572266C32.0211 0.572266 33.1382 1.60769 33.1382 2.95918C33.1382 4.31068 32.0211 5.34609 30.563 5.34609C29.1049 5.34609 27.9878 4.31068 27.9878 2.95918C27.9878 1.60769 29.1049 0.572266 30.563 0.572266Z" fill="white"/>
<path d="M49.0832 4.96013C50.2512 6.1772 50.6863 7.70671 50.6863 9.37428C50.6863 13.7884 47.1861 16.9419 42.9098 16.9419C40.7226 16.9419 39.1195 16.357 37.7085 15.2744C36.2033 16.357 35.8623 17.3924 35.8623 18.4278C35.8623 19.7357 36.9794 20.5895 39.1666 20.6803L45.046 20.862C49.7613 20.9964 52.0425 23.6086 52.0425 26.9873C52.0425 31.0418 47.7152 34.5986 40.9617 34.5986C35.4704 34.5986 32.6992 32.3461 32.6992 29.2834C32.6992 27.1653 33.8163 25.4978 36.5875 23.743C34.4983 23.0673 33.0873 21.5813 33.0873 19.4633C33.0873 17.7049 33.9613 15.9029 36.4424 14.1481C35.3254 12.753 34.7884 11.3107 34.7884 9.37428C34.7884 5.13815 38.4336 1.80664 42.7099 1.80664C45.5281 1.80664 46.2571 2.70764 49.0283 2.70764C50.2434 2.70764 51.9445 2.66404 53.6456 2.52598L54.0336 3.29256L53.6456 4.96013H49.0753H49.0832ZM44.1758 24.2843C41.9887 24.2843 40.2405 24.2843 38.2455 24.1499C36.5444 25.6358 35.8623 27.1217 35.8623 28.5205C35.8623 30.4569 37.6614 32.0809 41.7417 32.0809C47.3311 32.0809 49.3732 29.872 49.3732 27.7575C49.3732 25.6431 47.8171 24.288 44.1719 24.288L44.1758 24.2843ZM38.5394 9.10181C38.5394 13.0655 40.1935 15.1399 42.9137 15.1399C45.4419 15.1399 46.9979 13.5632 46.9979 9.59953C46.9979 5.86112 45.2968 3.60863 42.6237 3.60863C40.2405 3.60863 38.5394 5.3198 38.5394 9.10544V9.10181Z" fill="white"/>
<path d="M63.4152 13.2803C68.0795 13.2803 71.6306 16.4774 71.6306 20.8043C71.6306 21.164 71.6306 21.4801 71.5327 21.8397H56.5637C56.4657 22.3811 56.4657 22.8752 56.4657 23.5509C56.4657 28.1903 59.4799 31.3438 63.3681 31.3438C66.4803 31.3438 68.3735 30.352 70.3646 27.6962L71.5327 28.372C70.0746 31.7507 67.2054 34.5445 62.8821 34.5445C56.8067 34.5445 52.7734 29.7707 52.7734 24.2739C52.7734 18.0105 57.3907 13.2839 63.4152 13.2839V13.2803ZM67.3504 20.0377C67.3034 16.9751 65.0653 15.3075 62.3451 15.3075C59.3819 15.3075 57.4848 17.3784 56.9008 20.0377H67.3504Z" fill="white"/>
<path d="M91.7991 13.487C91.7991 14.8821 91.7991 16.4589 91.8971 17.8576C92.0421 19.7032 92.3361 20.4262 94.1313 21.1019L93.9863 22.1373C92.2852 22.0029 91.2151 22.0029 90.098 22.0029C88.9809 22.0029 87.9109 22.0029 86.2098 22.1373L86.0647 21.1019C87.8638 20.4262 88.1069 19.7068 88.2519 17.8576C88.3969 16.4625 88.3969 14.8858 88.3969 13.487V8.71321C88.3969 6.19187 86.7428 4.47707 84.1677 4.47707C80.8125 4.47707 78.7233 6.59514 78.7233 9.47615V13.487C78.7233 14.8821 78.7233 16.4589 78.8213 17.8576C78.9663 19.7032 79.2603 20.4262 81.0555 21.1019L80.9105 22.1373C79.2094 22.0029 78.1393 22.0029 77.0222 22.0029C75.9051 22.0029 74.8351 22.0029 73.134 22.1373L72.9889 21.1019C74.788 20.4262 75.0311 19.7068 75.1761 17.8576C75.3211 16.4625 75.3211 14.8858 75.3211 13.487V12.3608C75.3211 10.9657 75.3211 9.52338 75.1761 8.12466C75.0311 6.27907 74.545 5.87216 72.793 5.55609V4.6115C75.0271 3.61967 76.2422 2.90033 77.9433 1.45801L78.9624 1.81768C78.8174 3.26 78.7194 4.47707 78.6724 5.60332L78.7194 5.64691C80.0325 3.35083 82.3176 1.54883 85.2338 1.54883C87.6169 1.54883 89.6081 2.58425 90.7761 4.34265C91.4072 5.37807 91.7952 6.50431 91.7952 8.30631V13.487H91.7991Z" fill="white"/>
<path d="M34.2006 68.2869C30.1194 68.2869 27.3986 67.9261 25.3095 67.9261C24.1434 67.9261 22.8316 67.9261 20.9368 68.0614L20.791 66.934C22.7344 66.2125 23.0745 65.2203 23.2203 63.2361C23.366 61.748 23.366 59.7637 23.366 58.1854V46.1898C23.366 44.6115 23.366 42.6273 23.2203 41.1391C23.0745 39.1549 22.7344 38.1628 20.791 37.4412L20.9368 36.3138C22.8316 36.4491 24.1434 36.4491 25.3581 36.4491C28.3218 36.4491 30.5567 36.2236 33.8605 36.2236C43.7234 36.2236 52.5173 41.6352 52.5173 52.3229C52.5173 61.9734 45.0838 68.2869 34.2006 68.2869ZM33.8605 66.1674C42.8488 66.1674 48.0475 61.1617 48.0475 52.368C48.0475 43.5292 41.7799 38.253 33.4718 38.253C28.5647 38.253 27.5444 38.5686 27.3986 40.3725C27.2529 41.7704 27.2529 43.3939 27.2529 45.0173V58.6363C27.2529 60.2147 27.3015 62.6499 27.3986 63.5518C27.6416 65.8517 28.9048 66.1674 33.8605 66.1674Z" fill="white"/>
<path d="M65.2263 35.6377H66.1494L75.1377 58.1857C75.7208 59.6288 76.5953 61.7483 77.3241 63.2364C78.2472 65.2207 79.0732 66.1677 80.6765 66.9343L80.5307 68.0617C78.6359 67.9264 77.7614 67.9264 76.5467 67.9264C75.3321 67.9264 73.5344 67.9264 71.6396 68.0617L71.4938 66.9343C72.8056 66.3932 73.3401 65.9873 73.3401 65.1305C73.3401 64.0933 72.6113 62.3345 71.008 58.1857L70.6193 57.2838H58.7644L58.4243 58.1857C56.7238 62.3345 56.4323 64.0482 56.4323 65.0854C56.4323 65.9422 56.8696 66.4382 58.2786 66.9343L58.1328 68.0617C56.238 67.9264 55.2663 67.9264 54.0516 67.9264C52.837 67.9264 52.1568 67.9264 50.4563 68.0617L50.3105 66.9343C51.9139 66.1677 52.7398 65.2207 53.6629 63.2364C54.3917 61.7483 55.2663 59.6288 55.8493 58.1857L65.2263 35.6377ZM64.8862 42.5825L59.5904 55.3446H69.8905L64.8862 42.5825Z" fill="white"/>
</svg>
