<svg width="62" height="62" viewBox="0 0 62 62" fill="none" xmlns="http://www.w3.org/2000/svg">
<g clip-path="url(#clip0_1_27)">
<mask id="mask0_1_27" style="mask-type:luminance" maskUnits="userSpaceOnUse" x="0" y="0" width="62" height="62">
<path d="M0 0H62V62H0V0Z" fill="white"/>
</mask>
<g mask="url(#mask0_1_27)">
<path d="M56.3014 34.28L54.3614 26.71C54.3333 26.6001 54.2755 26.5 54.1944 26.4206C54.1133 26.3413 54.0119 26.2857 53.9014 26.26L46.4014 24.41C46.3414 24.4 46.2814 24.39 46.2314 24.39C46.1407 24.3805 46.0491 24.3907 45.9627 24.4201C45.8764 24.4494 45.7975 24.4972 45.7314 24.56L33.0714 37.22L31.3914 30.68C31.3633 30.5701 31.3055 30.47 31.2244 30.3906C31.1433 30.3113 31.0419 30.2557 30.9314 30.23L24.4914 28.64L37.1414 15.99C37.2114 15.92 37.2614 15.82 37.2914 15.73C37.3514 15.61 37.3614 15.46 37.3314 15.33L35.3914 7.76C35.3633 7.65008 35.3055 7.54999 35.2244 7.47065C35.1433 7.3913 35.0419 7.33573 34.9314 7.31L27.4314 5.46C27.2867 5.42535 27.1343 5.44306 27.0014 5.51C27.0014 5.51 26.9314 5.55 26.8914 5.58C26.8614 5.6 26.8214 5.62 26.7914 5.65L5.21141 27.22L5.15141 27.31C5.01141 27.47 4.96141 27.68 5.03141 27.89L7.13141 35.2C7.19141 35.41 7.35141 35.57 7.56141 35.63L14.5814 37.65L16.6014 44.67C16.6614 44.88 16.8214 45.04 17.0314 45.1L24.0814 47.12L26.1014 54.17C26.1614 54.38 26.3214 54.54 26.5314 54.6L33.8714 56.71C33.9314 56.73 33.9914 56.73 34.0414 56.73H34.0914C34.2514 56.73 34.4114 56.67 34.5414 56.54L56.1414 34.94C56.2114 34.87 56.2614 34.77 56.2914 34.68C56.3514 34.56 56.3614 34.41 56.3314 34.28H56.3014ZM46.6214 42.67L45.0414 36.52L48.5314 33.03L54.5314 34.75L46.6214 42.67ZM34.3714 54.91L32.7914 48.76L39.1114 42.44L45.1114 44.16L34.3614 54.91H34.3714ZM39.2414 40.54L37.7314 35.28L43.1514 36.62L39.2414 40.53V40.54ZM44.0214 37.54L45.4014 42.94L40.1314 41.43L44.0214 37.54ZM44.1914 35.59L38.0414 34.08L45.9414 26.18L47.6514 32.13L44.1914 35.59ZM36.5214 35.6L38.2314 41.55L31.9414 47.84L25.7914 46.33L36.5214 35.6ZM53.2414 27.37L54.8214 33.52L48.8614 31.81L47.1514 25.87L53.2414 27.37ZM24.8714 45.41L23.2914 39.26L25.5714 36.98L31.5714 38.7L24.8714 45.4V45.41ZM25.7014 35.09L24.1914 29.83L29.6114 31.17L25.7014 35.08V35.09ZM31.8514 37.48L26.5814 35.97L30.4714 32.08L31.8514 37.48ZM24.6914 36.1L22.4514 38.34L16.3014 36.83L22.9814 30.15L24.6914 36.1ZM17.6214 16.58L19.3314 22.53L12.9914 28.87L6.84141 27.36L17.6214 16.58ZM26.9814 7.21L28.6914 13.16L25.2914 16.56L19.1414 15.05L26.9814 7.21ZM27.7114 23.64L26.1314 17.49L29.5714 14.05L35.5714 15.77L27.7114 23.63V23.64ZM20.3414 21.53L18.8314 16.27L24.2514 17.61L20.3414 21.52V21.53ZM25.1114 18.52L26.4914 23.92L21.2214 22.41L25.1114 18.52ZM20.2114 23.42L26.2114 25.14L15.4114 35.94L13.8314 29.79L20.2014 23.42H20.2114ZM34.2814 8.41L35.8614 14.56L29.9014 12.85L28.1914 6.91L34.2814 8.41ZM6.53141 28.58L11.9514 29.92L8.04141 33.83L6.53141 28.57V28.58ZM8.92141 34.72L12.8114 30.83L14.1914 36.23L8.92141 34.72ZM17.6914 43.99L15.9814 38.05L22.0714 39.55L23.6514 45.7L17.6914 43.99ZM25.4914 47.54L30.9114 48.88L27.0014 52.79L25.4914 47.53V47.54ZM27.8814 53.68L31.7714 49.79L33.1514 55.19L27.8814 53.68Z" fill="#655EA8"/>
</g>
</g>
<defs>
<clipPath id="clip0_1_27">
<rect width="62" height="62" fill="white"/>
</clipPath>
</defs>
</svg>
