<svg width="62" height="62" viewBox="5 7 52 48" fill="none" xmlns="http://www.w3.org/2000/svg">
<g clip-path="url(#clip0_1_38)">
<path fill-rule="evenodd" clip-rule="evenodd" d="M26.9344 12.1288C26.6478 11.4382 25.6047 11.7359 25.7302 12.4726L25.9744 13.9063C25.9866 13.9777 26.0082 14.0447 26.0379 14.1065C24.7405 14.5358 23.5091 15.1088 22.3628 15.8064C22.3343 15.7442 22.2967 15.6848 22.2497 15.6298L21.3044 14.5264C20.8171 13.9576 19.9177 14.5613 20.266 15.2233L20.9427 16.5098C20.9758 16.5726 21.0162 16.6287 21.0624 16.6777C19.9721 17.4793 18.9765 18.4011 18.0956 19.4233C18.0506 19.3757 17.9985 19.3331 17.9395 19.297L16.6951 18.5365C16.0549 18.1453 15.3871 18.9958 15.924 19.5184L16.9712 20.5376C17.0188 20.5839 17.0707 20.6226 17.1256 20.6539C16.3424 21.7424 15.6795 22.9223 15.1562 24.1745C15.1015 24.1457 15.0422 24.1231 14.9789 24.1079L13.5576 23.7667C12.8272 23.5913 12.4564 24.6053 13.1295 24.9374L14.4438 25.5858C14.5002 25.6136 14.5582 25.6337 14.6167 25.6466C14.2165 26.9101 13.9543 28.2343 13.8474 29.6019C13.7859 29.5911 13.7219 29.5877 13.6562 29.5927L12.1991 29.7049C11.45 29.7625 11.4124 30.8409 12.1558 30.9498L13.6052 31.1624C13.6694 31.1718 13.7326 31.1728 13.7938 31.1664C13.8011 31.9477 13.8589 32.717 13.9643 33.4712C13.817 33.322 13.6388 33.1993 13.4355 33.1141L12.4445 32.6983C10.7548 31.9895 8.86954 33.0163 9.00711 34.8399C9.11309 36.2449 9.43588 37.815 10.1345 39.3005C10.9108 40.951 13.0778 40.8187 14.1781 39.3684L14.8774 38.4466C15.0176 38.2618 15.1125 38.0551 15.1629 37.8406C15.5244 38.7032 15.9521 39.5314 16.4398 40.3191C16.3834 40.3461 16.3293 40.3808 16.279 40.4234L15.1638 41.3679C14.5918 41.8524 15.1989 42.7467 15.8647 42.4004L17.1608 41.7264C17.2211 41.695 17.275 41.657 17.3225 41.6136C18.1314 42.6947 19.0608 43.6815 20.0909 44.5542C20.0436 44.5985 20.0012 44.6497 19.9653 44.7078L19.1969 45.9511C18.8034 46.5876 19.6587 47.2516 20.1843 46.7177L21.2079 45.678C21.2572 45.6279 21.298 45.5728 21.3302 45.5145C22.4269 46.2901 23.6152 46.9459 24.8759 47.4627C24.8431 47.5211 24.8177 47.5849 24.801 47.6536L24.4568 49.0708C24.2805 49.797 25.3003 50.1657 25.6343 49.4965L26.2836 48.195C26.3164 48.1292 26.3386 48.0613 26.3509 47.993C27.6228 48.388 28.9557 48.6457 30.3321 48.7487C30.316 48.8203 30.3101 48.8956 30.3162 48.9731L30.4289 50.4215C30.4869 51.1664 31.5714 51.2037 31.681 50.4646L31.8936 49.031C31.9054 48.9514 31.9042 48.8733 31.8917 48.7985C33.2764 48.7836 34.6233 48.6125 35.9155 48.3019C35.9219 48.3773 35.9399 48.4531 35.9707 48.5273L36.5285 49.8712C36.8151 50.5618 37.8581 50.2641 37.7327 49.5274L37.4885 48.0941C37.4749 48.0141 37.4493 47.9396 37.4139 47.8717C38.7103 47.4374 39.9402 46.8596 41.0847 46.1571C41.1144 46.2326 41.1571 46.3047 41.2133 46.3703L42.1585 47.4736C42.6457 48.0424 43.5452 47.4387 43.1969 46.7767L42.5203 45.4905C42.4798 45.4135 42.4282 45.3466 42.3686 45.2906C43.4575 44.4852 44.4511 43.5597 45.3298 42.5337C45.3825 42.5989 45.4472 42.6564 45.5235 42.7031L46.7678 43.4635C47.4079 43.8547 48.0758 43.0042 47.5388 42.4816L46.4918 41.4625C46.4287 41.4011 46.3581 41.3531 46.2831 41.3182C47.0649 40.2273 47.726 39.045 48.2472 37.7906C48.3176 37.8363 48.397 37.8712 48.484 37.8921L49.9053 38.2333C50.6357 38.4087 51.0065 37.3947 50.3334 37.0626L49.0191 36.4143C48.9402 36.3753 48.8581 36.3515 48.776 36.3414C49.1757 35.0765 49.4372 33.7507 49.543 32.3816C49.6261 32.4049 49.7148 32.4143 49.8066 32.4073L51.2637 32.2951C52.0129 32.2375 52.0504 31.1591 51.3071 31.0502L49.8576 30.8376C49.7674 30.8244 49.6792 30.8277 49.5955 30.8451C49.5841 29.5149 49.426 28.2194 49.1364 26.974C49.5032 27.2223 49.9166 27.3103 50.3403 27.1293C51.0395 26.8241 51.3405 26.0557 51.0232 25.3033C50.6284 24.369 49.9321 23.5918 49.0442 23.0941C49.0544 23.057 49.0642 23.0218 49.0735 22.9881L49.0739 22.9868L49.0742 22.9856L49.075 22.9827C49.1008 22.8898 49.1237 22.8077 49.1432 22.7257C49.3805 21.8161 49.3221 20.8552 48.9764 19.9807C48.8659 19.7109 48.6686 19.4853 48.4153 19.339C48.162 19.1928 47.8671 19.1342 47.5768 19.1725C46.9693 19.257 46.4332 19.7101 46.4358 20.2995L46.4359 20.32C46.4371 20.5137 46.4382 20.7131 46.4463 20.9126C45.5627 19.6373 44.516 18.4823 43.3364 17.4772C43.3981 17.4264 43.4527 17.3647 43.4974 17.2924L44.266 16.0489C44.6594 15.4124 43.8041 14.7484 43.2785 15.2823L42.2548 16.3222C42.195 16.3829 42.1479 16.4508 42.1131 16.523C41.0188 15.7429 39.8324 15.0825 38.5732 14.561C38.6126 14.4964 38.6429 14.4247 38.6618 14.3467L39.006 12.9292C39.1824 12.203 38.1626 11.8343 37.8286 12.5036L37.1791 13.8053C37.143 13.8777 37.1198 13.9527 37.1084 14.028C35.8377 13.6276 34.5057 13.3644 33.1298 13.2559C33.1467 13.1831 33.1529 13.1063 33.1467 13.0272L33.034 11.5785C32.976 10.8336 31.8915 10.7963 31.7819 11.5354L31.5692 12.9693C31.5575 13.0482 31.5586 13.1257 31.5708 13.2C30.1861 13.2093 28.8387 13.3749 27.5456 13.68C27.538 13.6107 27.5205 13.5411 27.4922 13.4728L26.9344 12.1288ZM46.5912 30.9995C46.5912 29.3045 46.3044 27.6756 45.7763 26.1582C44.93 26.7919 43.9544 27.3551 42.8517 27.7569C39.8419 28.8538 37.5441 29.3315 35.6048 29.5204C33.3999 32.5349 29.6516 33.7925 27.8381 34.0514L28.0691 29.5373C26.8884 29.5862 25.6197 29.7409 24.1361 30.1198C21.5608 30.7777 19.1486 31.819 16.938 33.0372C17.9367 40.2446 24.1573 45.8045 31.6946 45.8045C39.9286 45.8045 46.5912 39.1693 46.5912 30.9995ZM21.1981 36.9119C20.455 37.0434 19.7454 36.551 19.6132 35.8122C19.4809 35.0733 19.9761 34.3677 20.7192 34.2362C21.4623 34.1048 22.1719 34.5971 22.3041 35.336C22.4363 36.0749 21.9411 36.7805 21.1981 36.9119ZM27.4978 37.0764C27.0128 37.1622 26.5497 36.8408 26.4634 36.3586C26.3771 35.8763 26.7003 35.4158 27.1853 35.33C27.6702 35.2442 28.1334 35.5656 28.2197 36.0478C28.306 36.5301 27.9828 36.9906 27.4978 37.0764ZM35.4983 36.7653C35.0133 36.8511 34.5501 36.5298 34.4638 36.0475C34.3775 35.5653 34.7007 35.1048 35.1857 35.019C35.6707 34.9332 36.1338 35.2545 36.2201 35.7368C36.3064 36.219 35.9832 36.6795 35.4983 36.7653ZM37.1645 41.0136C37.2508 41.4959 37.7139 41.8172 38.1989 41.7314C38.6839 41.6456 39.007 41.1851 38.9207 40.7029C38.8344 40.2206 38.3713 39.8993 37.8863 39.9851C37.4014 40.0709 37.0782 40.5314 37.1645 41.0136ZM27.815 43.1785C27.33 43.2643 26.8669 42.943 26.7806 42.4607C26.6943 41.9785 27.0175 41.518 27.5025 41.4322C27.9875 41.3464 28.4506 41.6677 28.5369 42.15C28.6232 42.6322 28.3 43.0927 27.815 43.1785ZM23.0015 39.4301C23.0878 39.9123 23.5509 40.2337 24.0359 40.1478C24.5209 40.062 24.8441 39.6015 24.7578 39.1193C24.6715 38.6371 24.2083 38.3157 23.7234 38.4015C23.2384 38.4873 22.9152 38.9478 23.0015 39.4301ZM31.7103 39.7158C31.2253 39.8016 30.7622 39.4803 30.6759 38.998C30.5896 38.5158 30.9128 38.0553 31.3978 37.9695C31.8827 37.8837 32.3459 38.205 32.4322 38.6873C32.5185 39.1695 32.1953 39.63 31.7103 39.7158ZM39.3244 36.0878C39.4567 36.8266 40.1663 37.319 40.9093 37.1875C41.6524 37.0561 42.1476 36.3505 42.0154 35.6116C41.8831 34.8727 41.1735 34.3804 40.4305 34.5118C39.6874 34.6433 39.1922 35.3489 39.3244 36.0878ZM31.6744 42.9755C31.8066 43.7143 32.5162 44.2067 33.2593 44.0752C34.0023 43.9438 34.4975 43.2382 34.3653 42.4993C34.2331 41.7604 33.5235 41.2681 32.7804 41.3995C32.0373 41.531 31.5421 42.2366 31.6744 42.9755ZM42.1233 22.1252C42.3968 23.32 41.6876 24.4994 40.5391 24.7593C39.3907 25.0192 38.2379 24.2612 37.9644 23.0664C37.6909 21.8715 38.4002 20.6922 39.5486 20.4323C40.6971 20.1723 41.8498 20.9303 42.1233 22.1252ZM40.626 23.7211C41.1432 23.6041 41.4524 23.0281 41.3166 22.4346C41.1807 21.8411 40.6513 21.4549 40.134 21.572C39.6168 21.689 39.3076 22.265 39.4435 22.8585C39.5793 23.452 40.1088 23.8382 40.626 23.7211ZM113.385 14.9993C108.948 14.9993 105.351 18.5745 105.351 22.9847V38.9555H109.275V26.8854H113.384V22.9848H109.275C109.275 20.7288 111.115 18.8998 113.385 18.8998V14.9993ZM103.587 15.1151L103.587 19.0157C101.318 19.0157 99.4778 20.8446 99.4778 23.1005L99.4776 39.0712H95.5536V23.1003C95.5537 18.6902 99.1505 15.1151 103.587 15.1151ZM99.4778 23.1005L103.587 23.1004V27.001H99.4778V23.1005ZM72.034 31.0857C72.034 33.3417 70.1942 35.1705 67.9247 35.1705C65.6552 35.1705 63.8153 33.3417 63.8153 31.0857C63.8153 28.8297 65.6552 27.0008 67.9247 27.0008C70.1942 27.0008 72.034 28.8297 72.034 31.0857ZM63.8153 37.9487C65.0176 38.6615 66.423 39.0711 67.9247 39.0711C72.3614 39.0711 75.958 35.4959 75.958 31.0857C75.958 26.6755 72.3614 23.1003 67.9247 23.1003C63.488 23.1003 59.8914 26.6755 59.8914 31.0857V46.9993H63.8153V37.9487ZM89.8649 23.1003H93.7889V31.0853C93.7889 35.4955 90.1923 39.0708 85.7556 39.0708C81.319 39.0708 77.7224 35.4957 77.7223 31.0856V23.1003H81.6463V31.0853C81.6464 33.3412 83.4861 35.1703 85.7556 35.1703C88.0251 35.1703 89.8648 33.3415 89.8649 31.0856V23.1003ZM130.973 29.0197C130.69 27.9052 130.167 26.8567 129.431 25.9508C128.275 24.5299 126.665 23.5458 124.868 23.1625C123.071 22.7791 121.197 23.0198 119.557 23.8444C117.917 24.669 116.611 26.0276 115.857 27.6936C115.103 29.3595 114.946 31.2322 115.413 32.9991C115.88 34.7659 116.942 36.3203 118.423 37.4027C119.903 38.4852 121.712 39.0303 123.548 38.9472C125.384 38.8641 127.136 38.1578 128.511 36.9461L125.909 34.0273C125.183 34.667 124.228 35.0554 123.182 35.0554C121.623 35.0554 120.267 34.1923 119.571 32.9205H129.379L130.975 32.9203C131.132 32.2961 131.216 31.6428 131.216 30.9701C131.216 30.9468 131.216 30.9232 131.216 30.9L130.973 29.0197ZM123.182 26.8852C121.623 26.8852 120.267 27.7482 119.571 29.02H126.794C126.098 27.7482 124.742 26.8852 123.182 26.8852ZM141 27.0003C138.737 27.0074 136.904 28.8335 136.904 31.0851L132.98 31.0852C132.98 26.6794 136.569 23.1068 141 23.0997V27.0003ZM136.904 39.0708H132.98V31.0852L136.904 31.0851V39.0708Z" fill="white"/>
</g>
<defs>
<clipPath id="clip0_1_38">
<rect width="44" height="40" fill="white" transform="translate(9 11)"/>
</clipPath>
</defs>
</svg>
