<svg width="50" height="50" viewBox="0 0 50 50" fill="none" xmlns="http://www.w3.org/2000/svg">
<path opacity="0.62" d="M17.7365 38.7757L23.7763 31.3496C24.4069 30.5743 25.594 30.5743 26.2247 31.3496L32.2644 38.7757C32.7342 39.3536 32.7342 40.1794 32.2644 40.7573L26.2247 48.1833C25.594 48.9587 24.4069 48.9587 23.7763 48.1833L17.7365 40.7573C17.2667 40.1794 17.2667 39.3536 17.7365 38.7757Z" fill="#2DB1FF"/>
<path d="M27.1197 20.6156L33.1594 13.1896C33.79 12.4143 34.9772 12.4143 35.6079 13.1896L41.6476 20.6156C42.1175 21.1935 42.1175 22.0194 41.6476 22.5973L35.6079 30.0233C34.9772 30.7987 33.79 30.7987 33.1594 30.0233L27.1197 22.5973C26.6499 22.0194 26.6499 21.1935 27.1197 20.6156Z" fill="#2DB1FF"/>
<path d="M8.35236 20.6156L14.3921 13.1896C15.0227 12.4143 16.2099 12.4143 16.8406 13.1896L22.8804 20.6156C23.3501 21.1935 23.3501 22.0194 22.8804 22.5973L16.8406 30.0233C16.2099 30.7987 15.0227 30.7987 14.3921 30.0233L8.35236 22.5973C7.88255 22.0194 7.88255 21.1935 8.35236 20.6156Z" fill="#2DB1FF"/>
<path d="M17.7365 9.00847L23.7763 1.5815C24.4069 0.806167 25.594 0.806167 26.2247 1.5815L32.2644 9.00756C32.7342 9.58546 32.7342 10.4113 32.2644 10.9892L26.2247 18.4152C25.594 19.1906 24.4069 19.1906 23.7763 18.4152L17.7365 10.9901C17.2667 10.4122 17.2667 9.58546 17.7365 9.00847Z" fill="#2DB1FF"/>
</svg>
